<svg xmlns="http://www.w3.org/2000/svg" width="25" height="25" viewBox="0 0 25 25" fill="none">
  <path d="M9.45833 0.666664C11.9005 0.666664 14.2427 1.63682 15.9696 3.36372C17.6965 5.09062 18.6667 7.4328 18.6667 9.875C18.6667 12.17 17.8308 14.2667 16.4425 15.8675L24.4467 23.8717L23.4408 24.8775L15.4367 16.8733C13.7724 18.3015 11.6513 19.0856 9.45833 19.0833C7.01613 19.0833 4.67396 18.1132 2.94706 16.3863C1.22016 14.6594 0.25 12.3172 0.25 9.875C0.25 7.4328 1.22016 5.09062 2.94706 3.36372C4.67396 1.63682 7.01613 0.666664 9.45833 0.666664ZM9.45833 2.08333C7.39185 2.08333 5.41001 2.90424 3.94879 4.36546C2.48757 5.82668 1.66667 7.80852 1.66667 9.875C1.66667 11.9415 2.48757 13.9233 3.94879 15.3845C5.41001 16.8458 7.39185 17.6667 9.45833 17.6667C10.4815 17.6667 11.4947 17.4651 12.4401 17.0736C13.3854 16.682 14.2444 16.1081 14.9679 15.3845C15.6914 14.661 16.2653 13.8021 16.6569 12.8567C17.0485 11.9114 17.25 10.8982 17.25 9.875C17.25 8.85178 17.0485 7.83858 16.6569 6.89326C16.2653 5.94793 15.6914 5.08898 14.9679 4.36546C14.2444 3.64193 13.3854 3.068 12.4401 2.67644C11.4947 2.28487 10.4815 2.08333 9.45833 2.08333Z" fill="white"/>
</svg>