<svg xmlns="http://www.w3.org/2000/svg" width="22" height="22" viewBox="0 0 22 22" fill="none">
  <path d="M10.625 12.75C16.49 12.75 21.25 14.9742 21.25 17.7083V21.25H0V17.7083C0 14.9742 4.76 12.75 10.625 12.75ZM19.8333 17.7083C19.8333 15.7533 15.7108 14.1667 10.625 14.1667C5.53917 14.1667 1.41667 15.7533 1.41667 17.7083V19.8333H19.8333V17.7083ZM10.625 0C11.94 0 13.2012 0.522395 14.1311 1.45226C15.0609 2.38213 15.5833 3.6433 15.5833 4.95833C15.5833 6.27337 15.0609 7.53454 14.1311 8.4644C13.2012 9.39427 11.94 9.91667 10.625 9.91667C9.30997 9.91667 8.0488 9.39427 7.11893 8.4644C6.18906 7.53454 5.66667 6.27337 5.66667 4.95833C5.66667 3.6433 6.18906 2.38213 7.11893 1.45226C8.0488 0.522395 9.30997 0 10.625 0ZM10.625 1.41667C9.68569 1.41667 8.78485 1.78981 8.12066 2.454C7.45647 3.11819 7.08333 4.01902 7.08333 4.95833C7.08333 5.89764 7.45647 6.79848 8.12066 7.46267C8.78485 8.12686 9.68569 8.5 10.625 8.5C11.5643 8.5 12.4651 8.12686 13.1293 7.46267C13.7935 6.79848 14.1667 5.89764 14.1667 4.95833C14.1667 4.01902 13.7935 3.11819 13.1293 2.454C12.4651 1.78981 11.5643 1.41667 10.625 1.41667Z" fill="white"/>
</svg>